<?xml version="1.0" standalone="no"?>
<!DOCTYPE svg PUBLIC "-//W3C//DTD SVG 20010904//EN"
 "http://www.w3.org/TR/2001/REC-SVG-20010904/DTD/svg10.dtd">
<svg version="1.0" xmlns="http://www.w3.org/2000/svg"
 width="312.000000pt" height="240.000000pt" viewBox="0 0 312.000000 240.000000"
 preserveAspectRatio="xMidYMid meet">

<g transform="translate(0.000000,240.000000) scale(0.100000,-0.100000)"
fill="#000000" stroke="none">
<path d="M1416 1970 c-145 -31 -276 -103 -386 -212 -34 -33 -59 -62 -57 -65
12 -12 203 -55 303 -68 147 -19 444 -19 589 0 107 14 299 59 326 76 11 6 5 18
-26 49 -190 196 -471 278 -749 220z"/>
<path d="M1047 1363 c-4 -3 -7 -57 -7 -120 0 -106 1 -113 20 -113 19 0 20 7
20 120 0 93 -3 120 -13 120 -8 0 -17 -3 -20 -7z"/>
<path d="M1434 1354 c-48 -23 -64 -61 -64 -148 0 -69 2 -76 20 -76 16 0 20 7
20 30 l0 31 78 -3 c76 -3 77 -3 80 -30 2 -20 9 -28 23 -28 18 0 19 8 19 114 0
95 -3 115 -16 120 -30 11 -129 6 -160 -10z m131 -74 l0 -45 -73 -3 c-82 -3
-97 9 -68 54 22 32 50 44 101 41 l40 -2 0 -45z"/>
<path d="M1138 1304 c-5 -4 -8 -45 -8 -91 0 -76 2 -83 20 -83 17 0 19 8 22 68
l3 67 41 3 c57 4 74 -15 74 -84 0 -47 2 -54 20 -54 18 0 20 7 20 64 0 93 -16
109 -111 114 -41 2 -77 0 -81 -4z"/>
<path d="M1679 1291 c-22 -18 -24 -26 -24 -118 0 -91 1 -98 20 -98 18 0 20 8
25 95 l5 95 50 0 50 0 0 -45 0 -45 -42 -3 c-35 -3 -43 -7 -43 -23 0 -16 7 -19
43 -19 68 0 87 20 87 90 0 49 -4 61 -22 74 -33 23 -120 21 -149 -3z"/>
<path d="M1910 1290 c-18 -18 -20 -31 -18 -118 3 -83 6 -97 21 -100 15 -3 17
6 17 91 0 104 2 107 64 107 40 0 56 -15 56 -56 0 -35 -13 -44 -66 -44 -27 0
-34 -4 -34 -20 0 -17 7 -20 50 -20 68 0 90 22 90 90 0 71 -21 90 -100 90 -47
0 -64 -4 -80 -20z"/>
<path d="M1350 835 c-8 -2 -62 -11 -120 -20 -107 -16 -278 -60 -294 -76 -15
-14 142 -160 223 -207 40 -24 114 -57 165 -75 87 -30 98 -31 246 -31 148 0
159 1 246 31 51 18 125 51 165 75 80 47 238 193 223 207 -15 14 -147 50 -262
73 -86 17 -153 21 -342 24 -129 1 -242 1 -250 -1z"/>
</g>
</svg>
